<?xml version="1.0" standalone="no"?><!DOCTYPE svg PUBLIC "-//W3C//DTD SVG 1.1//EN" "http://www.w3.org/Graphics/SVG/1.1/DTD/svg11.dtd"><svg t="1591864571876" class="icon" viewBox="0 0 1024 1024" version="1.1" xmlns="http://www.w3.org/2000/svg" p-id="2075" xmlns:xlink="http://www.w3.org/1999/xlink" width="200" height="200"><defs><style type="text/css"></style></defs><path d="M500.659 561.622L168.512 892.199a47.54 47.54 0 0 1-66.815 0.21 41.025 41.025 0 0 1 0.029-58.007l336.07-335.555-333.777-333.26a44.222 44.222 0 0 1 0.392-63.014 45.55 45.55 0 0 1 63.92 0.423l332.961 332.447 332.93-332.418a45.579 45.579 0 0 1 64.493 0.091c17.193 17.314 17.133 45.307-0.152 62.532l-334.288 332.69L898.563 832.11a44.222 44.222 0 0 1-0.392 62.985 45.55 45.55 0 0 1-63.95-0.423L500.688 561.622z" fill="#000000" p-id="2076"></path></svg>