<?xml version="1.0" standalone="no"?><!DOCTYPE svg PUBLIC "-//W3C//DTD SVG 1.1//EN" "http://www.w3.org/Graphics/SVG/1.1/DTD/svg11.dtd"><svg t="1591864739472" class="icon" viewBox="0 0 1024 1024" version="1.1" xmlns="http://www.w3.org/2000/svg" p-id="2864" xmlns:xlink="http://www.w3.org/1999/xlink" width="200" height="200"><defs><style type="text/css"></style></defs><path d="M31.616 199.36a0.948 0.948 0 1 0 121.344 0 0.948 0.948 0 1 0-121.344 0zM23.936 500.032a0.949 0.949 0 1 0 121.472 0 0.949 0.949 0 1 0-121.472 0zM23.936 802.24a0.949 0.949 0 1 0 121.472 0 0.949 0.949 0 1 0-121.472 0zM995.392 196.544c0 32-23.744 57.856-53.12 57.856h-629.76c-29.376 0-53.184-25.92-53.184-57.856s23.744-57.856 53.184-57.856h629.696c29.44 0 53.184 25.92 53.184 57.856zM995.392 497.28c0 31.936-23.744 57.856-53.12 57.856h-629.76c-29.376 0-53.184-25.92-53.184-57.856 0-32 23.744-57.856 53.184-57.856h629.696c29.44-0.064 53.184 25.856 53.184 57.856zM995.392 799.296c0 32-23.744 57.92-53.12 57.92h-629.76c-29.376 0-53.184-25.92-53.184-57.92 0-31.872 23.744-57.792 53.184-57.792h629.696c29.44 0 53.184 25.92 53.184 57.792z" fill="#000000" p-id="2865"></path></svg>